<?xml version="1.0" encoding="utf-8"?>
<!-- Generator: Adobe Illustrator 15.1.0, SVG Export Plug-In . SVG Version: 6.00 Build 0)  -->
<!DOCTYPE svg PUBLIC "-//W3C//DTD SVG 1.1//EN" "http://www.w3.org/Graphics/SVG/1.1/DTD/svg11.dtd">
<svg version="1.1" id="Laag_1" xmlns="http://www.w3.org/2000/svg" xmlns:xlink="http://www.w3.org/1999/xlink" x="0px" y="0px"
	 width="283.465px" height="283.465px" viewBox="0 0 283.465 283.465" enable-background="new 0 0 283.465 283.465"
	 xml:space="preserve">
<g id="Laag_1_1_" display="none">
	
		<image display="inline" overflow="visible" enable-background="new    " width="60" height="60" xlink:href="../../../../../../ghost_trending_news_60x60_v1.png"  transform="matrix(1 0 0 1 111.7324 111.7324)">
	</image>
</g>
<g id="Laag_2">
	<g>
		<path d="M110.81,226.658c0,0-25.298-18.696-23.998-42.129c1.065-19.198,13.864-34.665,13.864-34.665s13.463-16.601,17.599-22.399
			c2.856-4.004,8.9-11.941,10.666-16.532c1.361-3.539,3.734-8.532,2.667-14.932c-0.834-5.007-7.999-18.666-7.999-18.666
			s24.961,14.008,28.264,43.197c1.734,15.332-8.946,26.411-11.199,36.799c-0.625,2.875-4.725,14.968,1.068,24.528
			c2.666,4.399,10.312,3.652,12.799,3.199c5.865-1.064,6.1-9.276,7.466-20.264c2.8-22.531,4.565-17.418,5.601-36.265
			c0.793-14.466-7.2-28.797-7.2-28.797s37.327,23.331,36.263,75.197c-1.062,51.766-34.128,55.461-34.128,55.461
			s2.665-2.135,4.265-8.533c2.359-9.44,14.271-8.033,14.266-29.664c-0.004-18.463-9.465-25.264-9.465-25.264
			s4.269,41.062-22.398,45.327c-4.996,0.8-17.74-1.206-22.933-14.93c-7.465-19.733-3.199-42.666-3.199-42.666
			s-12.798,5.334-17.598,14.937c-3.603,7.207-4.522,11.611-5.334,19.728C99.077,199.994,110.81,226.658,110.81,226.658z"/>
		<g>
			<path d="M223.335,144.453l-1.535-21.787l-18.819-11.087l20.247-8.195l4.729-21.323l14.049,16.721l21.741-2.09l-11.562,18.531
				l8.708,20.032l-21.198-5.274L223.335,144.453z M214.246,112.413l12.356,7.279l1.008,14.303l10.741-9.501l13.917,3.462
				l-5.716-13.151l7.591-12.167l-14.274,1.372l-9.225-10.978l-3.104,14L214.246,112.413z"/>
			<path d="M39.24,144.453l-1.536-21.786L18.886,111.58l20.247-8.195l4.729-21.325l14.051,16.725l21.742-2.092L68.09,115.224
				l8.708,20.032l-21.197-5.273L39.24,144.453z M30.152,112.414l12.355,7.279l1.008,14.303l10.742-9.5l13.917,3.462l-5.716-13.151
				l7.592-12.167l-14.275,1.374L46.55,93.032l-3.105,14.001L30.152,112.414z"/>
		</g>
		<path d="M131.289,73.586L129.751,51.8l-18.82-11.088l20.248-8.194l4.729-21.321l14.052,16.72l21.739-2.09l-11.562,18.53
			l8.707,20.034l-21.197-5.274L131.289,73.586z M122.198,41.546l12.356,7.28l1.009,14.304l10.742-9.501l13.918,3.462l-5.717-13.153
			l7.591-12.167l-14.272,1.373l-9.227-10.979l-3.105,14L122.198,41.546z"/>
		<path d="M217.744,257.837l-1.536-21.785l-18.82-11.087l20.249-8.193l4.729-21.323l14.05,16.72l21.741-2.091l-11.563,18.532
			l8.709,20.032l-21.197-5.274L217.744,257.837z M208.655,225.799l12.355,7.278l1.009,14.305l10.742-9.501l13.916,3.462
			l-5.717-13.151l7.593-12.167l-14.274,1.372l-9.226-10.978l-3.104,14.001L208.655,225.799z"/>
		<path d="M44.831,257.84l-1.536-21.786l-18.82-11.088l20.248-8.194l4.729-21.324l14.051,16.724l21.74-2.093l-11.562,18.531
			l8.708,20.033l-21.197-5.274L44.831,257.84z M35.742,225.8l12.356,7.279l1.008,14.304l10.742-9.501l13.917,3.462l-5.716-13.152
			l7.591-12.166l-14.273,1.374l-9.225-10.979l-3.105,14L35.742,225.8z"/>
	</g>
</g>
</svg>
