<?xml version="1.0" encoding="utf-8"?>
<!-- Generator: Adobe Illustrator 16.0.0, SVG Export Plug-In . SVG Version: 6.00 Build 0)  -->
<!DOCTYPE svg PUBLIC "-//W3C//DTD SVG 1.1//EN" "http://www.w3.org/Graphics/SVG/1.1/DTD/svg11.dtd">
<svg version="1.1" id="Laag_1" xmlns="http://www.w3.org/2000/svg" xmlns:xlink="http://www.w3.org/1999/xlink" x="0px" y="0px"
	 width="480px" height="640px" viewBox="0 0 480 640" enable-background="new 0 0 480 640" xml:space="preserve">
<path fill="#378181" d="M367.203,214.899c0,0,102.726,112.454-15.738,237.027l0.922-14.882l39.947-78.377l2-70.667L377,246.334
	L367.203,214.899z"/>
<g id="L48CqM_4_">
	<g>
		<path fill-rule="evenodd" clip-rule="evenodd" fill="#648F2F" stroke="#648F2F" stroke-miterlimit="10" d="M241.524,151.607
			c5.309,0.603,10.667,0.927,15.915,1.867c9.428,1.689,18.788,3.749,28.916,5.804c-1.025,1.546-1.52,2.341-2.063,3.102
			c-10.759,15.057-21.567,30.078-32.235,45.201c-1.372,1.946-2.727,2.403-4.996,2.229c-48.678-3.744-86.848,14.671-112.16,56.323
			c-20.975,34.516-21.765,71.178-5.412,108.102c0.951,2.148,0.867,3.526-0.504,5.422c-10.966,15.157-21.809,30.404-32.694,45.619
			c-0.628,0.878-1.302,1.724-2.157,2.852c-1.281-1.778-2.426-3.296-3.496-4.862c-17.975-26.314-28.08-55.351-30.133-87.173
			c-0.064-0.992-0.335-1.971-0.51-2.955c0-5.262,0-10.523,0-15.785c0.174-1.079,0.442-2.152,0.506-3.238
			c0.779-13.376,3.154-26.469,7.035-39.284c19.23-63.498,73.088-110.471,138.682-120.878c6.469-1.026,13.014-1.574,19.522-2.344
			C231.001,151.607,236.264,151.607,241.524,151.607z"/>
		<path fill-rule="evenodd" clip-rule="evenodd" fill="#648F2F" stroke="#648F2F" stroke-miterlimit="10" d="M221.49,498.274
			c-6.99-1.012-14.03-1.753-20.959-3.08c-30.897-5.919-58.093-19.465-81.746-40.172c-0.379-0.333-0.75-0.679-1.102-1.041
			c-0.13-0.135-0.191-0.335-0.443-0.796c5.184-4.941,10.427-9.939,15.781-15.044c2.293,2.184,4.383,4.329,6.631,6.292
			c26.654,23.257,57.951,34.61,93.044,33.766c57.586-1.387,102.021-26.784,132.692-75.785c0.371-0.592,0.682-1.221,1.156-2.078
			c-10.754-5.305-21.398-10.556-31.928-15.75c23.752-45.259,21.188-88.645-8.105-130.886c13.348-12.728,26.908-25.658,40.691-38.801
			c1.068,1.304,1.975,2.354,2.822,3.45c20.961,27.097,33.627,57.369,36.637,91.525c0.087,0.984-0.185,2.251,0,3.227
			c0,4.3,0,8.6,0,12.898c0,3.796,0,7.592,0,11.387c-0.998,6.786-1.807,13.605-3.023,20.352
			c-12.599,69.831-70.72,126.828-140.807,138.129c-5.668,0.914-11.371,1.609-17.058,2.407
			C237.68,498.274,229.584,498.274,221.49,498.274z"/>
	</g>
</g>
<path fill="#FFFFFF" d="M90.277,214.899c1.5,0.5,33.776,19.101,33.776,19.101s-67.663,92.334-6.163,171.5v16l-42.078-13.744
	l-12.479-92.089l26.943-97.333"/>
<polyline fill="none" stroke="#FFFFFF" stroke-width="3" stroke-miterlimit="10" points="214.637,192.592 239.07,192.592 
	239.07,213.695 "/>
<polyline fill="none" stroke="#648F2F" stroke-width="3" stroke-miterlimit="10" points="172.988,282 148.554,282 148.554,260.896 
	"/>
<polyline fill="none" stroke="#FFFFFF" stroke-width="3" stroke-miterlimit="10" points="150.218,217.027 150.218,192.592 
	171.322,192.592 "/>
<polyline fill="none" stroke="#648F2F" stroke-width="3" stroke-miterlimit="10" points="214.637,282 239.07,282 239.07,260.896 "/>
<path fill="#648F2F" d="M295.496,152.572c0,0,183.004,75.928,98.504,258.928l12.893,7.261
	c88.696-194.897-102.396-278.188-102.396-278.188L295.496,152.572z"/>
<path fill="none" stroke="#000000" stroke-width="3" stroke-miterlimit="10" d="M335,385"/>
<rect x="317.186" y="416.562" transform="matrix(0.4942 -0.8693 0.8693 0.4942 -227.3681 515.3245)" fill="#FFFFFF" width="24" height="73"/>
<polygon fill="#FFFFFF" points="369.834,395.667 360.711,408.983 297.25,372.902 305.385,358.594 "/>
<rect x="119.186" y="351.562" transform="matrix(-0.4942 -0.8693 0.8693 -0.4942 -141.3368 693.8951)" fill="#FFFFFF" width="24" height="73"/>
<path fill="none" stroke="#648F2F" stroke-width="3" stroke-miterlimit="10" d="M398,407.756c0,0-10.414,21.892-37.04,49.568
	l45.72,28.01"/>
<path fill="#FFFFFF" d="M102,435l-17.528-13.246c0,0-60.805-76.087,3.667-189.959L97.297,264c0,0-23.963,77.333-10.963,108
	S112,416.535,112,416.535L102,435z"/>
<path fill="#FFFFFF" d="M107.646,415.25l-9.088,14.25c0,0-5.008-4.811-5.033-4.905s-5.85-13.233-5.312-12.789s5.312-4.05,5.312-4.05
	L107.646,415.25z"/>
<rect x="73.257" y="434.934" transform="matrix(0.6888 0.725 -0.725 0.6888 350.5329 66.9445)" fill="#648F2F" width="48.082" height="13.591"/>
<path fill="#FFFFFF" d="M88.139,230.795"/>
<rect x="79.266" y="213.142" transform="matrix(-0.5964 0.8027 -0.8027 -0.5964 316.9193 280.2601)" fill="#648F2F" width="17.467" height="13.33"/>
<path fill="none" stroke="#648F2F" stroke-width="3" stroke-miterlimit="10" d="M88.213,228.5c0,0-64.837,92.008-3.741,192.254"/>
<polygon fill="#648F2F" points="425.15,488.253 416.936,499.59 359.287,457.819 369.656,447.534 "/>
</svg>
