<?xml version="1.0" encoding="utf-8"?>
<!-- Generator: Adobe Illustrator 16.0.0, SVG Export Plug-In . SVG Version: 6.00 Build 0)  -->
<!DOCTYPE svg PUBLIC "-//W3C//DTD SVG 1.1//EN" "http://www.w3.org/Graphics/SVG/1.1/DTD/svg11.dtd">
<svg version="1.1" id="Laag_1" xmlns="http://www.w3.org/2000/svg" xmlns:xlink="http://www.w3.org/1999/xlink" x="0px" y="0px"
	 width="480px" height="640px" viewBox="0 0 480 640" enable-background="new 0 0 480 640" xml:space="preserve">
<path fill="#378181" d="M361.203,214.899c0,0,102.726,112.454-15.738,237.027l0.922-14.882l39.947-78.377l2-70.667L371,246.334
	L361.203,214.899z"/>
<g id="L48CqM_3_">
	<g>
		<path fill-rule="evenodd" clip-rule="evenodd" fill="#378181" d="M235.524,151.607c5.309,0.603,10.667,0.927,15.915,1.867
			c9.428,1.689,18.788,3.749,28.916,5.804c-1.025,1.546-1.52,2.341-2.063,3.102c-10.759,15.057-21.567,30.078-32.235,45.201
			c-1.372,1.946-2.727,2.403-4.996,2.229c-48.678-3.744-86.848,14.671-112.16,56.323c-20.975,34.516-21.765,71.178-5.412,108.102
			c0.951,2.148,0.867,3.526-0.504,5.422c-10.966,15.157-21.809,30.404-32.694,45.619c-0.628,0.878-1.302,1.724-2.157,2.852
			c-1.281-1.778-2.426-3.296-3.496-4.862c-17.975-26.314-28.08-55.351-30.133-87.173c-0.064-0.992-0.335-1.971-0.51-2.955
			c0-5.262,0-10.523,0-15.785c0.174-1.079,0.442-2.152,0.506-3.238c0.779-13.376,3.154-26.469,7.035-39.284
			c19.23-63.498,73.088-110.471,138.682-120.878c6.469-1.026,13.014-1.574,19.522-2.344
			C225.001,151.607,230.264,151.607,235.524,151.607z"/>
		<path fill-rule="evenodd" clip-rule="evenodd" fill="#378181" d="M215.49,498.274c-6.99-1.012-14.03-1.753-20.959-3.08
			c-30.897-5.919-58.093-19.465-81.746-40.172c-0.379-0.333-0.75-0.679-1.102-1.041c-0.13-0.135-0.191-0.335-0.443-0.796
			c5.184-4.941,10.427-9.939,15.781-15.044c2.293,2.184,4.383,4.329,6.631,6.292c26.654,23.257,57.951,34.61,93.044,33.766
			c57.586-1.387,102.021-26.784,132.692-75.785c0.371-0.592,0.682-1.221,1.156-2.078c-10.754-5.305-21.398-10.556-31.928-15.75
			c23.752-45.259,21.188-88.645-8.105-130.886c13.348-12.728,26.908-25.658,40.691-38.801c1.068,1.304,1.975,2.354,2.822,3.45
			c20.961,27.097,33.627,57.369,36.637,91.525c0.087,0.984-0.185,2.251,0,3.227c0,4.3,0,8.6,0,12.898c0,3.796,0,7.592,0,11.387
			c-0.998,6.786-1.807,13.605-3.023,20.352c-12.599,69.831-70.72,126.828-140.807,138.129c-5.668,0.914-11.371,1.609-17.058,2.407
			C231.68,498.274,223.584,498.274,215.49,498.274z"/>
	</g>
</g>
<path fill="#FFFFFF" d="M84.277,214.899c1.5,0.5,33.776,19.101,33.776,19.101s-67.663,92.334-6.163,171.5v16l-42.078-13.744
	l-12.479-92.089l26.943-97.333"/>
<polyline fill="none" stroke="#FFFFFF" stroke-width="3" stroke-miterlimit="10" points="208.637,192.592 233.07,192.592 
	233.07,213.695 "/>
<polyline fill="none" stroke="#378181" stroke-width="3" stroke-miterlimit="10" points="166.988,282 142.554,282 142.554,260.896 
	"/>
<polyline fill="none" stroke="#FFFFFF" stroke-width="3" stroke-miterlimit="10" points="144.218,217.027 144.218,192.592 
	165.322,192.592 "/>
<polyline fill="none" stroke="#378181" stroke-width="3" stroke-miterlimit="10" points="208.637,282 233.07,282 233.07,260.896 "/>
<path fill="#378181" d="M289.496,152.572c0,0,183.004,75.928,98.504,258.928l12.893,7.261
	c88.696-194.897-102.396-278.188-102.396-278.188L289.496,152.572z"/>
<path fill="none" stroke="#000000" stroke-width="3" stroke-miterlimit="10" d="M329,385"/>
<rect x="311.186" y="416.562" transform="matrix(0.4942 -0.8693 0.8693 0.4942 -230.4028 510.1085)" fill="#FFFFFF" width="24" height="73"/>
<polygon fill="#FFFFFF" points="363.834,395.667 354.711,408.983 291.25,372.902 299.385,358.594 "/>
<rect x="113.186" y="351.562" transform="matrix(-0.4942 -0.8693 0.8693 -0.4942 -150.3021 688.6791)" fill="#FFFFFF" width="24" height="73"/>
<path fill="none" stroke="#378181" stroke-width="3" stroke-miterlimit="10" d="M392,407.756c0,0-10.414,21.892-37.04,49.568
	l45.72,28.01"/>
<path fill="#FFFFFF" d="M96,435l-17.528-13.246c0,0-60.805-76.087,3.667-189.959L91.297,264c0,0-23.963,77.333-10.963,108
	S106,416.535,106,416.535L96,435z"/>
<path fill="#FFFFFF" d="M101.646,415.25l-9.088,14.25c0,0-5.008-4.811-5.033-4.905s-5.85-13.233-5.312-12.789s5.312-4.05,5.312-4.05
	L101.646,415.25z"/>
<rect x="67.257" y="434.934" transform="matrix(0.6888 0.725 -0.725 0.6888 348.6654 71.2945)" fill="#378181" width="48.082" height="13.591"/>
<path fill="#FFFFFF" d="M82.139,230.795"/>
<rect x="73.266" y="213.142" transform="matrix(-0.5964 0.8027 -0.8027 -0.5964 307.3409 285.0762)" fill="#378181" width="17.467" height="13.33"/>
<path fill="none" stroke="#378181" stroke-width="3" stroke-miterlimit="10" d="M82.213,228.5c0,0-64.837,92.008-3.741,192.254"/>
<polygon fill="#378181" points="419.15,488.253 410.936,499.59 353.287,457.819 363.656,447.534 "/>
</svg>
