<?xml version="1.0" encoding="utf-8"?>
<!-- Generator: Adobe Illustrator 15.1.0, SVG Export Plug-In . SVG Version: 6.00 Build 0)  -->
<!DOCTYPE svg PUBLIC "-//W3C//DTD SVG 1.1//EN" "http://www.w3.org/Graphics/SVG/1.1/DTD/svg11.dtd">
<svg version="1.1" id="Laag_1" xmlns="http://www.w3.org/2000/svg" xmlns:xlink="http://www.w3.org/1999/xlink" x="0px" y="0px"
	 width="283.465px" height="283.465px" viewBox="0 0 283.465 283.465" enable-background="new 0 0 283.465 283.465"
	 xml:space="preserve">
<g>
	<g>
		<path d="M45.251,73.787l17.871,10.916c0,0-15.914,26.9-19.562,46.137c-6.973,36.766,7.817,57.474,7.817,57.474l10.334-9.141
			c0,0-19.705-47.231,16.713-87.636c27.998-31.062,69.73-22.611,69.73-22.611l24.303-34.562c0,0-35.08-13.19-78.185,2.445
			C67.011,46.699,45.251,73.787,45.251,73.787z"/>
		<path d="M51.293,189.056l-0.322-0.451c-0.149-0.209-14.834-21.305-7.902-57.858c3.372-17.782,17.333-42.345,19.374-45.872
			L44.505,73.917l0.356-0.443c0.218-0.272,22.161-27.311,49.242-37.135c14.04-5.093,28.697-7.675,43.564-7.675
			c20.809,0,34.828,5.179,34.967,5.231l0.604,0.228L148.376,69.48l-0.32-0.064c-0.051-0.011-5.231-1.04-13.02-1.04
			c-15.995,0-38.736,4.076-56.239,23.496c-35.792,39.71-16.819,86.639-16.623,87.109l0.138,0.33L51.293,189.056z M46.003,73.661
			l17.8,10.872l-0.251,0.424c-0.159,0.269-15.911,27.047-19.5,45.976c-6.289,33.162,5.353,53.364,7.426,56.625l9.641-8.527
			c-1.66-4.336-17.672-49.433,16.935-87.829c17.75-19.692,40.784-23.826,56.982-23.826c6.788,0,11.634,0.775,12.895,0.999
			l23.737-33.757c-2.899-0.977-15.826-4.954-34.001-4.954c-14.75,0-29.292,2.562-43.223,7.615
			C69.517,46.321,48.957,70.127,46.003,73.661z"/>
	</g>
	<g>
		<path d="M221.477,67.13c0,0,40.985,36.082,34.646,87.43c-6.063,49.123-39.803,78.218-39.803,78.218l-12.275-7.806
			c0,0,11.019-12.438,14.263-16.481c2.858-3.562,10.143-15.213,10.143-15.213l-20.918-11.411c0.001-0.001,7.202-11.635,5.24-41.958
			c-1.435-22.155-13.265-41.94-13.265-41.94L221.477,67.13z"/>
		<path d="M216.364,233.399l-13.083-8.319l0.389-0.439c0.11-0.124,11.047-12.474,14.247-16.462
			c2.489-3.103,8.458-12.541,9.826-14.716l-20.914-11.409l0.277-0.45c0.071-0.115,7.093-11.886,5.166-41.663
			c-1.41-21.774-13.077-41.519-13.194-41.716l-0.168-0.28l22.48-31.556l0.416,0.366c0.412,0.363,41.111,36.847,34.812,87.867
			c-6.018,48.75-39.634,78.243-39.973,78.535L216.364,233.399z M204.807,224.865l11.462,7.288
			c3.234-2.932,33.679-31.648,39.357-77.654c5.893-47.729-29.808-82.643-34.07-86.618l-21.455,30.115
			c1.443,2.516,11.837,21.291,13.17,41.88c1.732,26.785-3.679,39.132-5.069,41.787l20.953,11.431l-0.281,0.449
			c-0.298,0.478-7.332,11.718-10.177,15.261C215.827,212.381,206.794,222.617,204.807,224.865z"/>
	</g>
	<g>
		<path d="M130.827,250.963c37.084,1.901,60.855-14.896,60.855-14.896l10.46,6.34c0,0-28.468,24.232-79.556,18.383
			c-41.521-4.754-63.011-27.538-63.011-27.538l-6.72,6.304L30.67,216.416l3.169-3.804c0,0-20.285-26.94-19.651-66.243
			c0.532-32.965,21.553-66.56,21.553-66.56l-4.021-2.634l5.75-9.444l8.476,5.354l-5.766,8.625c0,0-20.112,28.508-21.236,65.61
			c-1.585,52.297,38.035,80.822,38.035,80.822l7.29-7.924C64.268,220.219,86.856,248.709,130.827,250.963z"/>
		<path d="M138.299,262.2c-5.164,0-10.469-0.308-15.769-0.914c-38.391-4.396-60-24.419-62.966-27.338l-6.726,6.31L30,216.439
			l3.207-3.849c-2.264-3.184-20.111-29.493-19.519-66.229c0.497-30.753,18.972-62.413,21.374-66.399l-4.021-2.634l6.266-10.292
			l9.339,5.9l-6.051,9.052c-0.207,0.294-20.046,28.831-21.152,65.347c-1.479,48.784,33.546,77.119,37.474,80.136l7.379-8.021
			l0.364,0.458c0.225,0.283,22.971,28.34,66.193,30.556c1.932,0.099,3.89,0.149,5.817,0.149
			c33.179,0.001,54.513-14.806,54.724-14.955l0.268-0.189l11.333,6.869l-0.527,0.449C202.238,242.981,179.185,262.199,138.299,262.2
			z M59.598,232.545l0.342,0.363c0.214,0.227,21.86,22.708,62.704,27.384c5.263,0.603,10.53,0.908,15.655,0.908
			c37.039-0.001,59.271-15.88,62.972-18.738l-9.573-5.802c-2.609,1.732-23.569,14.953-55.023,14.953c-0.002,0-0.002,0-0.004,0
			c-1.945,0-3.919-0.051-5.868-0.151c-40.665-2.084-63.412-26.836-66.551-30.486l-7.205,7.832l-0.36-0.26
			c-0.398-0.286-39.818-29.281-38.243-81.243c1.116-36.826,21.126-65.596,21.328-65.882l5.474-8.188l-7.612-4.809l-5.234,8.597
			l4.026,2.637l-0.26,0.415c-0.209,0.335-20.953,33.859-21.477,66.303c-0.624,38.684,19.349,65.667,19.551,65.935l0.238,0.316
			l-3.136,3.765l21.535,22.459L59.598,232.545z"/>
	</g>
	<g>
		<path d="M178.617,29.848c0,0,63.673,30.801,78.358,87.678c17.432,67.511-37.083,117.59-37.083,117.59l34.088,24.264l7.585-8.536
			l-29.969-21.728c0,0,3.504-5.045,6.361-8.896c2.609-3.519,9.508-14.579,9.508-14.579l6.022,3.804c0,0,31.378-56.735,5.705-115.373
			c-20.433-46.666-74.513-72.307-74.513-72.307L178.617,29.848z"/>
		<path d="M254.056,260.048l-0.365-0.261L219.1,235.166l0.455-0.418c0.136-0.125,13.716-12.725,24.993-33.379
			c10.395-19.038,20.904-49.016,11.943-83.718c-14.457-55.995-77.457-87.045-78.092-87.353l-0.547-0.265l6.673-8.896l0.369,0.175
			c0.543,0.257,54.483,26.256,74.757,72.558c25.478,58.19-5.41,115.246-5.726,115.815l-0.257,0.464l-6.046-3.818
			c-1.297,2.07-6.964,11.085-9.264,14.186c-2.355,3.176-5.185,7.211-6.072,8.481l30.019,21.764L254.056,260.048z M220.677,235.061
			l33.229,23.651l6.92-7.787l-29.919-21.691l0.279-0.402c0.035-0.051,3.542-5.096,6.371-8.909
			c2.567-3.462,9.416-14.436,9.485-14.546l0.266-0.427l5.991,3.784c2.896-5.574,29.489-59.523,5.437-114.461
			c-19.244-43.952-69.12-69.509-73.902-71.876l-5.457,7.274c6.248,3.188,64.229,34.073,78.084,87.731
			c9.045,35.033-1.561,65.275-12.05,84.477C235.207,220.553,223.128,232.692,220.677,235.061z"/>
	</g>
	<path d="M135.241,212.875c-36.479,0-66.158-29.679-66.158-66.158c0-36.48,29.679-66.16,66.158-66.16
		c36.48,0,66.159,29.679,66.159,66.16C201.4,183.196,171.722,212.875,135.241,212.875z M135.241,85.315
		c-33.856,0-61.4,27.545-61.4,61.402c0,33.856,27.544,61.4,61.4,61.4s61.401-27.544,61.401-61.4
		C196.643,112.86,169.098,85.315,135.241,85.315z"/>
	<path d="M135.478,210.814l-10.103-12.892l-13.572,7.325l-4.856-15.764l-15.758,2.171l1.761-16.297l-15.926-4.674l8.229-14.104
		l-11.969-10.211l11.582-9.607l-6.597-14.524l14.199-4.474l-1.56-16.519l15.856,2.057l4.774-15.975l13.926,7.293l10.619-11.865
		l9.896,12.011l14.065-7.32l5.353,15.251l15.682-1.274l-1.5,15.849l15.443,5.073l-6.992,14.933l10.803,8.818l-11.624,11.289
		l7.388,13.626l-13.968,4.382l0.281,17.033l-15.616-1.317l-6.283,14.603l-12.977-7.532L135.478,210.814z M126.392,193.05
		l9.18,11.714l9.596-11.488l12.041,6.989l5.672-13.181l14.153,1.194l-0.258-15.668l12.271-3.849l-6.56-12.099l10.628-10.322
		l-9.791-7.992l6.43-13.729l-14.252-4.681l1.359-14.354l-14.084,1.144l-4.87-13.879l-12.906,6.717l-9.037-10.97l-9.641,10.771
		l-12.461-6.527l-4.378,14.652l-14.339-1.859l1.401,14.837l-13.035,4.106l6.022,13.259l-10.338,8.575l10.947,9.34l-7.381,12.651
		l14.314,4.201l-1.579,14.617l14.136-1.946l4.443,14.424L126.392,193.05z"/>
</g>
</svg>
